<svg width="92" height="22" viewBox="0 0 92 22" fill="none" xmlns="http://www.w3.org/2000/svg">
<path d="M27.9785 9.60742C28.0957 9.60742 28.1966 9.57487 28.2812 9.50977C28.3659 9.43815 28.4115 9.34049 28.418 9.2168L28.5742 6.4043H33.5938L27.4121 16.0723C27.3991 16.0983 27.3503 16.1797 27.2656 16.3164C27.181 16.4531 27.1387 16.5801 27.1387 16.6973C27.1387 16.8991 27.3079 17 27.6465 17H34.6973C34.847 17 34.9674 16.9544 35.0586 16.8633C35.1562 16.7721 35.2018 16.6452 35.1953 16.4824L35.0977 13.2402C35.0977 13.0775 35.0586 12.957 34.9805 12.8789C34.9023 12.7943 34.8079 12.752 34.6973 12.752C34.5736 12.752 34.4596 12.7975 34.3555 12.8887C34.2578 12.9798 34.2057 13.1003 34.1992 13.25V16.1602H28.6035L34.6777 6.44336C34.7428 6.33919 34.7754 6.22526 34.7754 6.10156C34.7754 5.95833 34.7331 5.83464 34.6484 5.73047C34.5638 5.61979 34.4466 5.56445 34.2969 5.56445H28.1445C27.9167 5.56445 27.7507 5.61654 27.6465 5.7207C27.5423 5.81836 27.487 5.94531 27.4805 6.10156V9.12891C27.4805 9.27865 27.5293 9.39583 27.627 9.48047C27.7311 9.5651 27.8483 9.60742 27.9785 9.60742ZM36.1797 13.0254C36.1797 13.8783 36.3652 14.6172 36.7363 15.2422C37.1074 15.8607 37.625 16.3359 38.2891 16.668C38.9596 17 39.7311 17.166 40.6035 17.166C41.1569 17.166 41.7493 17.0586 42.3809 16.8438C43.0189 16.6289 43.5072 16.3392 43.8457 15.9746C43.9629 15.8444 44.0215 15.7077 44.0215 15.5645C44.0215 15.4473 43.9857 15.3464 43.9141 15.2617C43.8424 15.1771 43.748 15.1348 43.6309 15.1348C43.5007 15.1348 43.3672 15.1901 43.2305 15.3008C42.8594 15.6523 42.4362 15.9193 41.9609 16.1016C41.4922 16.2773 41.0137 16.3652 40.5254 16.3652C39.5228 16.3652 38.7122 16.0983 38.0938 15.5645C37.4753 15.0306 37.1497 14.2493 37.1172 13.2207L43.2598 13.1719C43.4876 13.1719 43.6699 13.0938 43.8066 12.9375C43.9434 12.7747 44.0117 12.5697 44.0117 12.3223C44.0117 11.6257 43.8587 11.0332 43.5527 10.5449C43.2533 10.0566 42.8366 9.6888 42.3027 9.44141C41.7754 9.1875 41.1732 9.06055 40.4961 9.06055C39.7018 9.06055 38.9759 9.22005 38.3184 9.53906C37.6673 9.85807 37.1465 10.3171 36.7559 10.916C36.3717 11.515 36.1797 12.2181 36.1797 13.0254ZM40.5156 9.86133C41.5312 9.86133 42.2181 10.1185 42.5762 10.6328C42.9342 11.1471 43.1361 11.7559 43.1816 12.459L37.1465 12.498C37.2637 11.6647 37.6152 11.0169 38.2012 10.5547C38.7936 10.0924 39.5651 9.86133 40.5156 9.86133ZM51.7734 10.2422C51.8971 10.2422 51.9915 10.2031 52.0566 10.125C52.1283 10.0469 52.1641 9.95247 52.1641 9.8418C52.1641 9.73763 52.1283 9.64648 52.0566 9.56836C51.9915 9.48372 51.9004 9.44141 51.7832 9.44141H48.1504V7.10742C48.1504 6.96419 48.1276 6.85677 48.082 6.78516C48.0365 6.70703 47.9421 6.66797 47.7988 6.66797C47.61 6.66797 47.4733 6.7526 47.3887 6.92188C47.3105 7.08464 47.2617 7.3418 47.2422 7.69336C47.2227 8.04492 47.2129 8.6276 47.2129 9.44141H45.7773C45.6471 9.44141 45.5462 9.48047 45.4746 9.55859C45.403 9.63021 45.3672 9.7181 45.3672 9.82227C45.3672 9.93294 45.4062 10.0306 45.4844 10.1152C45.5625 10.1999 45.6732 10.2422 45.8164 10.2422H47.2129V15.3496C47.2129 15.6686 47.3268 15.9681 47.5547 16.248C47.7891 16.528 48.0983 16.7526 48.4824 16.9219C48.873 17.0846 49.2897 17.166 49.7324 17.166C50.1686 17.166 50.6081 17.1139 51.0508 17.0098C51.4935 16.9121 51.8809 16.7852 52.2129 16.6289C52.5514 16.4661 52.7891 16.3034 52.9258 16.1406C52.9583 16.0951 52.9746 16.0462 52.9746 15.9941C52.9746 15.8835 52.929 15.7728 52.8379 15.6621C52.7467 15.5514 52.6556 15.4961 52.5645 15.4961C52.5189 15.4961 52.4831 15.5091 52.457 15.5352C52.1445 15.7695 51.7409 15.9681 51.2461 16.1309C50.7578 16.2871 50.2858 16.3652 49.8301 16.3652C49.3288 16.3652 48.9219 16.2578 48.6094 16.043C48.3034 15.8216 48.1504 15.4766 48.1504 15.0078V10.2422H51.7734ZM61.293 8.62109C61.293 8.76432 61.3353 8.87826 61.4199 8.96289C61.5111 9.04102 61.6152 9.08008 61.7324 9.08008C61.8626 9.08008 61.9701 9.03776 62.0547 8.95312C62.1393 8.86198 62.1816 8.73177 62.1816 8.5625V6.0918C62.1816 5.8444 62.1491 5.66862 62.084 5.56445C62.0254 5.46029 61.9277 5.4082 61.791 5.4082C61.6087 5.4082 61.4785 5.48307 61.4004 5.63281C61.3223 5.78255 61.2832 6.00716 61.2832 6.30664C60.9772 5.9681 60.5703 5.73372 60.0625 5.60352C59.5612 5.47331 59.0241 5.4082 58.4512 5.4082C57.8262 5.4082 57.2565 5.52539 56.7422 5.75977C56.2344 5.98763 55.8307 6.32617 55.5312 6.77539C55.2318 7.22461 55.082 7.76497 55.082 8.39648C55.082 8.96289 55.1992 9.42839 55.4336 9.79297C55.6745 10.151 55.987 10.4375 56.3711 10.6523C56.7552 10.8607 57.2533 11.069 57.8652 11.2773L59.4668 11.8242C59.9941 12.0065 60.4141 12.1855 60.7266 12.3613C61.0456 12.5371 61.2897 12.7585 61.459 13.0254C61.6283 13.2923 61.7129 13.6276 61.7129 14.0312C61.7129 14.819 61.4688 15.3984 60.9805 15.7695C60.4922 16.1406 59.8607 16.3262 59.0859 16.3262C58.5586 16.3262 58.041 16.2383 57.5332 16.0625C57.0319 15.8867 56.6217 15.6621 56.3027 15.3887C55.9837 15.1087 55.8242 14.832 55.8242 14.5586V13.3965C55.8242 13.2467 55.7786 13.1296 55.6875 13.0449C55.6029 12.9603 55.4987 12.918 55.375 12.918C55.2513 12.918 55.1471 12.957 55.0625 13.0352C54.9844 13.1133 54.9453 13.2272 54.9453 13.377V16.4434C54.9453 16.7168 54.9811 16.9056 55.0527 17.0098C55.1243 17.1139 55.2448 17.166 55.4141 17.166C55.5638 17.166 55.6777 17.0618 55.7559 16.8535C55.834 16.6452 55.873 16.3522 55.873 15.9746C56.2181 16.3392 56.6966 16.6289 57.3086 16.8438C57.9206 17.0586 58.5033 17.166 59.0566 17.166C59.7207 17.166 60.3229 17.0586 60.8633 16.8438C61.4036 16.6289 61.8366 16.2839 62.1621 15.8086C62.4876 15.3333 62.6504 14.7279 62.6504 13.9922C62.6504 13.4518 62.5365 12.9961 62.3086 12.625C62.0807 12.2474 61.752 11.9316 61.3223 11.6777C60.8991 11.4173 60.3457 11.1699 59.6621 10.9355L58.334 10.4766C57.6829 10.2487 57.2142 10.0664 56.9277 9.92969C56.6413 9.79297 56.4167 9.60417 56.2539 9.36328C56.0977 9.1224 56.0195 8.78385 56.0195 8.34766C56.0195 7.69661 56.2539 7.18555 56.7227 6.81445C57.1914 6.43685 57.8424 6.24805 58.6758 6.24805C59.0794 6.24805 59.4733 6.30339 59.8574 6.41406C60.248 6.52474 60.5736 6.69401 60.834 6.92188C61.1009 7.14323 61.2539 7.41341 61.293 7.73242V8.62109ZM63.3516 13.1133C63.3516 13.9271 63.5241 14.64 63.8691 15.252C64.2142 15.8639 64.6992 16.3359 65.3242 16.668C65.9492 17 66.6719 17.166 67.4922 17.166C68.3125 17.166 69.0352 17 69.6602 16.668C70.2852 16.3359 70.7702 15.8639 71.1152 15.252C71.4603 14.64 71.6328 13.9271 71.6328 13.1133C71.6328 12.293 71.4603 11.5768 71.1152 10.9648C70.7702 10.3529 70.2852 9.88411 69.6602 9.55859C69.0352 9.22656 68.3125 9.06055 67.4922 9.06055C66.6719 9.06055 65.9492 9.22656 65.3242 9.55859C64.6992 9.88411 64.2142 10.3529 63.8691 10.9648C63.5241 11.5768 63.3516 12.293 63.3516 13.1133ZM64.4062 13.1133C64.4062 12.4818 64.5267 11.9219 64.7676 11.4336C65.015 10.9388 65.3698 10.5547 65.832 10.2812C66.3008 10.0013 66.8542 9.86133 67.4922 9.86133C68.1302 9.86133 68.6803 10.0013 69.1426 10.2812C69.6113 10.5547 69.9661 10.9388 70.207 11.4336C70.4544 11.9219 70.5781 12.4818 70.5781 13.1133C70.5781 13.7513 70.4544 14.3177 70.207 14.8125C69.9661 15.3008 69.6113 15.6816 69.1426 15.9551C68.6803 16.2285 68.1302 16.3652 67.4922 16.3652C66.8542 16.3652 66.3008 16.2285 65.832 15.9551C65.3698 15.6816 65.015 15.3008 64.7676 14.8125C64.5267 14.3177 64.4062 13.7513 64.4062 13.1133ZM80.6641 5.89648C80.6641 5.74674 80.6087 5.6263 80.498 5.53516C80.3939 5.44401 80.2637 5.39844 80.1074 5.39844C78.7402 5.39844 77.6888 5.68164 76.9531 6.24805C76.224 6.80794 75.8594 7.66406 75.8594 8.81641V9.51953H73.9453C73.8151 9.51953 73.7142 9.55859 73.6426 9.63672C73.571 9.71484 73.5352 9.80599 73.5352 9.91016C73.5352 10.0208 73.5742 10.1185 73.6523 10.2031C73.7305 10.2812 73.8411 10.3203 73.9844 10.3203H75.8594V16.1992H73.7012C73.571 16.1992 73.4701 16.2383 73.3984 16.3164C73.3268 16.3945 73.291 16.4857 73.291 16.5898C73.291 16.7005 73.3301 16.7982 73.4082 16.8828C73.4863 16.9609 73.597 17 73.7402 17H80.332C80.4557 17 80.5501 16.9609 80.6152 16.8828C80.6868 16.8047 80.7227 16.7103 80.7227 16.5996C80.7227 16.4954 80.6868 16.4043 80.6152 16.3262C80.5501 16.2415 80.459 16.1992 80.3418 16.1992H76.8066L76.7969 10.3203H79.8145C79.9382 10.3203 80.0358 10.2812 80.1074 10.2031C80.179 10.125 80.2148 10.0306 80.2148 9.91992C80.2148 9.81576 80.179 9.72461 80.1074 9.64648C80.0423 9.56185 79.9479 9.51953 79.8242 9.51953H76.8066V8.875C76.8066 8.25 76.8913 7.75195 77.0605 7.38086C77.2363 7.00977 77.5326 6.72982 77.9492 6.54102C78.3724 6.3457 78.9648 6.22201 79.7266 6.16992V7.07812C79.7266 7.24089 79.7721 7.36784 79.8633 7.45898C79.9544 7.54362 80.0618 7.58594 80.1855 7.58594C80.3158 7.58594 80.4264 7.54036 80.5176 7.44922C80.6152 7.35156 80.6641 7.21484 80.6641 7.03906V5.89648ZM88.2109 10.2422C88.3346 10.2422 88.429 10.2031 88.4941 10.125C88.5658 10.0469 88.6016 9.95247 88.6016 9.8418C88.6016 9.73763 88.5658 9.64648 88.4941 9.56836C88.429 9.48372 88.3379 9.44141 88.2207 9.44141H84.5879V7.10742C84.5879 6.96419 84.5651 6.85677 84.5195 6.78516C84.474 6.70703 84.3796 6.66797 84.2363 6.66797C84.0475 6.66797 83.9108 6.7526 83.8262 6.92188C83.748 7.08464 83.6992 7.3418 83.6797 7.69336C83.6602 8.04492 83.6504 8.6276 83.6504 9.44141H82.2148C82.0846 9.44141 81.9837 9.48047 81.9121 9.55859C81.8405 9.63021 81.8047 9.7181 81.8047 9.82227C81.8047 9.93294 81.8438 10.0306 81.9219 10.1152C82 10.1999 82.1107 10.2422 82.2539 10.2422H83.6504V15.3496C83.6504 15.6686 83.7643 15.9681 83.9922 16.248C84.2266 16.528 84.5358 16.7526 84.9199 16.9219C85.3105 17.0846 85.7272 17.166 86.1699 17.166C86.6061 17.166 87.0456 17.1139 87.4883 17.0098C87.931 16.9121 88.3184 16.7852 88.6504 16.6289C88.9889 16.4661 89.2266 16.3034 89.3633 16.1406C89.3958 16.0951 89.4121 16.0462 89.4121 15.9941C89.4121 15.8835 89.3665 15.7728 89.2754 15.6621C89.1842 15.5514 89.0931 15.4961 89.002 15.4961C88.9564 15.4961 88.9206 15.5091 88.8945 15.5352C88.582 15.7695 88.1784 15.9681 87.6836 16.1309C87.1953 16.2871 86.7233 16.3652 86.2676 16.3652C85.7663 16.3652 85.3594 16.2578 85.0469 16.043C84.7409 15.8216 84.5879 15.4766 84.5879 15.0078V10.2422H88.2109Z" fill="url(#paint0_linear)"/>
<path fill-rule="evenodd" clip-rule="evenodd" d="M10.8787 1L0 10.9423L10.8787 21L22 10.8633L10.8787 1ZM11.2836 2.19035L20.8414 10.7338L13.4566 8.92107L11.2836 2.19035ZM1.46856 10.366L6.94979 7.41421L10.4268 2.18725L1.46856 10.366ZM8.90477 13.2297L14.3989 14.539L10.8814 19.9221L8.90477 13.2297ZM10.5737 19.9093L1.40652 11.4427L8.57787 13.1518L10.5737 19.9093ZM10.7063 20.3581L10.6737 20.3879L10.7151 20.388L10.7063 20.3581ZM20.8291 10.9642L15.0292 13.9743L13.5536 9.21242L20.8291 10.9642ZM12.8947 9.05377L14.4274 13.9999L8.73131 12.6424L7.2715 7.69987L12.8947 9.05377ZM19.8943 12.0792L12.0422 19.2044L14.9998 14.6446L19.8943 12.0792ZM1.10079 10.827L8.40884 12.5684L6.98983 7.70815L1.10079 10.827ZM12.8154 8.76572L10.7575 2.159L7.28903 7.43147L12.8154 8.76572Z" fill="url(#paint1_linear)"/>
<defs>
<linearGradient id="paint0_linear" x1="58.5" y1="0" x2="58.5" y2="22" gradientUnits="userSpaceOnUse">
<stop stop-color="#2DF3AE"/>
<stop offset="1" stop-color="#0CCBEC"/>
</linearGradient>
<linearGradient id="paint1_linear" x1="-1.30597" y1="9.09731" x2="7.80962" y2="22.5685" gradientUnits="userSpaceOnUse">
<stop stop-color="#2DF3AE"/>
<stop offset="1" stop-color="#0CCBEC"/>
</linearGradient>
</defs>
</svg>
